REM DIRINDEX 1\3,1\4,1\5,1\6,1\2\7,1\2\8,1\2\9,1\10
REM DIRNAME folder01,folder02,folder03,folder04,folder05,folder06,folder07,folder08,folder09,folder10
TITLE ""
FILE "1-60 Level 3-515-525.mp3" MP3
  TRACK 01 AUDIO
    TITLE "0:"
    INDEX 01 00:00:00
  TRACK 02 AUDIO
    TITLE "10:cjc056_1770"
    INDEX 01 00:00:01
  TRACK 03 AUDIO
    TITLE "0:"
    INDEX 01 00:03:17
  TRACK 04 AUDIO
    TITLE "7:cjc056_1771"
    INDEX 01 00:03:70
  TRACK 05 AUDIO
    TITLE "0:"
    INDEX 01 00:05:26
  TRACK 06 AUDIO
    TITLE "8:cjc056_1772"
    INDEX 01 00:05:36
  TRACK 07 AUDIO
    TITLE "0:"
    INDEX 01 00:07:03
  TRACK 08 AUDIO
    TITLE "9:cjc056_1773"
    INDEX 01 00:07:15
  TRACK 09 AUDIO
    TITLE "0:"
    INDEX 01 00:10:63
  TRACK 10 AUDIO
    TITLE "7:cjc056_1774"
    INDEX 01 00:11:44
  TRACK 11 AUDIO
    TITLE "0:"
    INDEX 01 00:12:67
  TRACK 12 AUDIO
    TITLE "8:cjc056_1775"
    INDEX 01 00:13:08
  TRACK 13 AUDIO
    TITLE "0:"
    INDEX 01 00:14:70
  TRACK 14 AUDIO
    TITLE "9:cjc056_1776"
    INDEX 01 00:15:11
  TRACK 15 AUDIO
    TITLE "0:"
    INDEX 01 00:17:53
  TRACK 16 AUDIO
    TITLE "7:cjc056_1777"
    INDEX 01 00:18:33
  TRACK 17 AUDIO
    TITLE "0:"
    INDEX 01 00:20:14
  TRACK 18 AUDIO
    TITLE "8:cjc056_1778"
    INDEX 01 00:20:28
  TRACK 19 AUDIO
    TITLE "0:"
    INDEX 01 00:21:64
  TRACK 20 AUDIO
    TITLE "9:cjc056_1779"
    INDEX 01 00:22:03
  TRACK 21 AUDIO
    TITLE "0:"
    INDEX 01 00:25:50
  TRACK 22 AUDIO
    TITLE "7:cjc056_1780"
    INDEX 01 00:26:24
  TRACK 23 AUDIO
    TITLE "0:"
    INDEX 01 00:28:17
  TRACK 24 AUDIO
    TITLE "8:cjc056_1781"
    INDEX 01 00:28:31
  TRACK 25 AUDIO
    TITLE "0:"
    INDEX 01 00:31:47
  TRACK 26 AUDIO
    TITLE "9:cjc056_1782"
    INDEX 01 00:31:61
  TRACK 27 AUDIO
    TITLE "0:"
    INDEX 01 00:35:27
  TRACK 28 AUDIO
    TITLE "7:cjc056_1783"
    INDEX 01 00:36:03
  TRACK 29 AUDIO
    TITLE "0:"
    INDEX 01 00:37:48
  TRACK 30 AUDIO
    TITLE "8:cjc056_1784"
    INDEX 01 00:37:59
  TRACK 31 AUDIO
    TITLE "0:"
    INDEX 01 00:40:15
  TRACK 32 AUDIO
    TITLE "9:cjc056_1785"
    INDEX 01 00:40:28
  TRACK 33 AUDIO
    TITLE "0:"
    INDEX 01 00:43:44
  TRACK 34 AUDIO
    TITLE "7:cjc056_1786"
    INDEX 01 00:44:20
  TRACK 35 AUDIO
    TITLE "0:"
    INDEX 01 00:46:53
  TRACK 36 AUDIO
    TITLE "8:cjc056_1787"
    INDEX 01 00:46:64
  TRACK 37 AUDIO
    TITLE "0:"
    INDEX 01 00:49:59
  TRACK 38 AUDIO
    TITLE "9:cjc056_1788"
    INDEX 01 00:49:72
  TRACK 39 AUDIO
    TITLE "0:"
    INDEX 01 00:52:67
  TRACK 40 AUDIO
    TITLE "7:cjc056_1789"
    INDEX 01 00:53:47
  TRACK 41 AUDIO
    TITLE "0:"
    INDEX 01 00:55:46
  TRACK 42 AUDIO
    TITLE "8:cjc056_1790"
    INDEX 01 00:55:59
  TRACK 43 AUDIO
    TITLE "0:"
    INDEX 01 00:58:03
  TRACK 44 AUDIO
    TITLE "9:cjc056_1791"
    INDEX 01 00:58:18
  TRACK 45 AUDIO
    TITLE "0:"
    INDEX 01 01:00:51
  TRACK 46 AUDIO
    TITLE "7:cjc056_1792"
    INDEX 01 01:01:27
  TRACK 47 AUDIO
    TITLE "0:"
    INDEX 01 01:02:24
  TRACK 48 AUDIO
    TITLE "8:cjc056_1793"
    INDEX 01 01:02:48
  TRACK 49 AUDIO
    TITLE "0:"
    INDEX 01 01:03:57
  TRACK 50 AUDIO
    TITLE "9:cjc056_1794"
    INDEX 01 01:04:01
  TRACK 51 AUDIO
    TITLE "0:"
    INDEX 01 01:06:57
  TRACK 52 AUDIO
    TITLE "7:cjc056_1795"
    INDEX 01 01:07:33
  TRACK 53 AUDIO
    TITLE "0:"
    INDEX 01 01:08:54
  TRACK 54 AUDIO
    TITLE "8:cjc056_1796"
    INDEX 01 01:08:66
  TRACK 55 AUDIO
    TITLE "0:"
    INDEX 01 01:11:43
  TRACK 56 AUDIO
    TITLE "9:cjc056_1797"
    INDEX 01 01:11:54
  TRACK 57 AUDIO
    TITLE "0:"
    INDEX 01 01:13:67
  TRACK 58 AUDIO
    TITLE "7:cjc056_1798"
    INDEX 01 01:14:43
  TRACK 59 AUDIO
    TITLE "0:"
    INDEX 01 01:17:08
  TRACK 60 AUDIO
    TITLE "8:cjc056_1799"
    INDEX 01 01:17:20
  TRACK 61 AUDIO
    TITLE "0:"
    INDEX 01 01:19:17
  TRACK 62 AUDIO
    TITLE "9:cjc056_1800"
    INDEX 01 01:19:27
  TRACK 63 AUDIO
    TITLE "0:"
    INDEX 01 01:22:56
  TRACK 64 AUDIO
    TITLE "7:cjc056_1801"
    INDEX 01 01:23:22
  TRACK 65 AUDIO
    TITLE "0:"
    INDEX 01 01:24:30
  TRACK 66 AUDIO
    TITLE "8:cjc056_1802"
    INDEX 01 01:24:55
  TRACK 67 AUDIO
    TITLE "0:"
    INDEX 01 01:26:03
  TRACK 68 AUDIO
    TITLE "9:cjc056_1803"
    INDEX 01 01:26:17
  TRACK 69 AUDIO
    TITLE "0:"
    INDEX 01 01:29:07
